<?xml version="1.0" standalone="no"?>
<!DOCTYPE svg PUBLIC "-//W3C//DTD SVG 20010904//EN"
 "http://www.w3.org/TR/2001/REC-SVG-20010904/DTD/svg10.dtd">
<svg version="1.0" xmlns="http://www.w3.org/2000/svg"
 width="256.000000pt" height="256.000000pt" viewBox="0 0 256.000000 256.000000"
 preserveAspectRatio="xMidYMid meet">
<metadata>
Created by potrace 1.14, written by Peter Selinger 2001-2017
</metadata>
<g transform="translate(0.000000,256.000000) scale(0.100000,-0.100000)"
fill="#000000" stroke="none">
<path d="M615 2525 c-63 -30 -77 -42 -104 -85 -24 -39 -29 -100 -8 -100 7 0
36 7 65 15 76 23 118 81 128 178 2 24 -21 21 -81 -8z"/>
<path d="M1867 2513 c13 -89 57 -140 138 -162 60 -16 65 -15 65 22 0 33 -30
91 -59 115 -25 20 -114 62 -133 62 -14 0 -16 -7 -11 -37z"/>
<path d="M383 2501 c-12 -10 -33 -35 -47 -56 -22 -32 -26 -49 -25 -104 0 -36
6 -83 12 -104 12 -37 13 -37 35 -22 43 31 66 92 64 175 -1 41 -5 87 -9 102 -8
26 -9 26 -30 9z"/>
<path d="M2143 2473 c-20 -105 6 -220 59 -258 23 -15 23 -15 36 27 17 57 16
150 -2 185 -16 31 -64 83 -77 83 -4 0 -11 -17 -16 -37z"/>
<path d="M1155 2297 c-71 -49 -197 -134 -278 -189 -81 -55 -147 -102 -145
-103 14 -12 229 -155 233 -155 3 0 5 40 5 88 0 101 1 103 87 146 152 76 348
65 507 -28 l45 -26 3 -91 3 -90 108 75 c60 40 109 76 110 79 2 6 -121 92 -410
289 l-138 94 -130 -89z"/>
<path d="M535 2280 c-71 -16 -117 -56 -135 -121 l-9 -29 65 0 c38 0 77 6 94
15 30 16 66 67 79 113 8 28 8 29 -28 29 -20 0 -49 -4 -66 -7z"/>
<path d="M1930 2258 c14 -46 50 -97 80 -113 17 -9 56 -15 94 -15 l65 0 -9 29
c-22 77 -87 123 -181 126 l-57 3 8 -30z"/>
<path d="M198 2246 c-47 -65 -55 -139 -23 -224 32 -84 42 -87 76 -19 18 34 20
53 16 111 -5 66 -31 156 -46 156 -3 0 -13 -11 -23 -24z"/>
<path d="M2316 2229 c-36 -90 -30 -224 13 -263 17 -16 19 -15 33 6 36 55 52
152 35 203 -12 34 -49 95 -58 95 -4 0 -14 -19 -23 -41z"/>
<path d="M1190 2084 c-36 -7 -93 -28 -127 -44 l-63 -31 0 -155 c0 -85 2 -154
4 -154 2 0 24 9 49 19 137 59 339 55 484 -9 l43 -19 0 159 0 158 -33 20 c-104
61 -238 82 -357 56z"/>
<path d="M377 2055 c-48 -16 -81 -46 -103 -92 -21 -45 -10 -54 68 -49 83 5
116 31 153 119 l15 37 -47 0 c-27 -1 -65 -7 -86 -15z"/>
<path d="M2062 2038 c15 -45 54 -95 86 -112 22 -11 103 -15 144 -7 12 2 -11
64 -34 89 -34 37 -96 62 -155 62 l-52 0 11 -32z"/>
<path d="M73 1933 c-26 -68 -22 -128 12 -191 15 -28 36 -59 46 -68 16 -15 19
-14 33 15 21 39 20 105 -1 167 -15 45 -58 124 -67 124 -3 0 -13 -21 -23 -47z"/>
<path d="M2446 1958 c-59 -91 -81 -209 -50 -270 l16 -30 23 22 c64 60 86 176
49 260 l-20 45 -18 -27z"/>
<path d="M351 1856 c-72 -25 -141 -108 -141 -170 0 -20 5 -26 23 -26 33 0 99
41 123 77 19 28 42 119 32 128 -2 1 -18 -3 -37 -9z"/>
<path d="M2176 1823 c11 -81 39 -119 107 -148 61 -25 70 -21 64 25 -9 66 -58
121 -140 155 l-38 16 7 -48z"/>
<path d="M14 1659 c-4 -24 -8 -54 -9 -66 -4 -51 40 -128 102 -176 32 -26 43
-11 43 58 0 64 -34 137 -88 189 l-40 38 -8 -43z"/>
<path d="M2492 1656 c-56 -60 -82 -118 -82 -181 0 -69 12 -85 42 -60 91 78
116 139 95 236 l-12 52 -43 -47z"/>
<path d="M305 1612 c-67 -41 -121 -129 -113 -184 2 -13 10 -24 19 -26 19 -3
93 49 115 82 17 28 32 146 18 146 -5 0 -23 -8 -39 -18z"/>
<path d="M2213 1570 c6 -71 22 -99 79 -140 60 -43 76 -40 73 14 -2 46 -19 81
-64 129 -24 27 -71 57 -87 57 -4 0 -4 -27 -1 -60z"/>
<path d="M1421 1603 c-17 -31 0 -65 43 -84 l41 -18 3 51 c2 27 1 53 -2 56 -13
13 -77 9 -85 -5z"/>
<path d="M616 1602 c-43 -9 -66 -56 -66 -138 0 -122 38 -154 184 -154 89 0 97
-2 111 -24 16 -25 12 -49 -13 -78 -13 -16 -34 -18 -149 -18 l-133 0 0 -43 0
-43 149 1 c141 2 152 3 185 26 43 29 50 46 48 121 -1 64 -21 112 -55 129 -12
7 -68 13 -125 14 -57 1 -108 7 -113 12 -15 15 -14 70 1 88 10 12 38 15 145 15
l133 0 4 34 c7 62 7 62 -147 62 -77 0 -149 -2 -159 -4z"/>
<path d="M1031 1599 c-38 -15 -55 -56 -55 -136 1 -58 5 -80 21 -101 32 -43 60
-52 165 -52 86 0 99 -2 108 -19 16 -30 12 -59 -10 -81 -18 -18 -33 -20 -149
-20 -139 0 -138 0 -137 -55 l1 -30 151 0 c141 1 152 2 183 24 39 28 51 56 51
124 0 58 -24 108 -62 128 -13 8 -64 13 -120 14 -63 1 -102 6 -112 14 -18 15
-21 53 -6 82 10 17 23 19 151 19 l140 0 -3 48 -3 47 -147 0 c-80 1 -156 -2
-167 -6z"/>
<path d="M1640 1596 c-18 -6 -43 -24 -54 -39 -20 -26 -21 -44 -24 -240 l-3
-212 38 0 38 0 2 70 c1 39 2 122 2 185 1 63 5 120 9 127 15 23 59 26 80 5 18
-18 19 -34 20 -193 0 -96 1 -179 1 -185 1 -5 19 -11 41 -12 33 -2 40 0 40 15
2 317 5 365 24 379 26 18 51 18 70 -2 13 -12 16 -40 16 -142 0 -70 4 -142 10
-161 9 -34 46 -81 62 -81 13 0 9 380 -5 419 -17 50 -57 76 -114 74 -28 -1 -57
-9 -72 -21 -25 -18 -27 -18 -51 -1 -32 23 -87 29 -130 15z"/>
<path d="M1419 1512 c-4 -33 -3 -402 1 -403 3 -1 24 -2 48 -4 l42 -2 -2 189
-3 189 -42 19 c-24 10 -43 16 -44 12z"/>
<path d="M323 1385 c-28 -20 -79 -103 -88 -142 -8 -40 2 -93 18 -93 16 0 68
48 88 80 23 37 31 77 23 126 -7 49 -10 51 -41 29z"/>
<path d="M2196 1356 c-10 -65 7 -115 55 -164 49 -49 65 -52 74 -14 13 60 -34
169 -89 208 -30 21 -33 18 -40 -30z"/>
<path d="M19 1348 c-3 -81 9 -124 43 -164 41 -46 107 -81 119 -62 12 18 4 80
-16 120 -21 42 -81 105 -117 124 -28 14 -28 14 -29 -18z"/>
<path d="M2505 1361 c-44 -26 -109 -104 -122 -144 -10 -34 -10 -93 0 -103 11
-11 77 29 111 66 38 42 49 80 44 153 l-3 47 -30 -19z"/>
<path d="M357 1159 c-38 -50 -67 -119 -67 -161 0 -38 17 -88 31 -88 4 0 26 25
48 57 37 50 41 62 41 112 -1 31 -7 69 -13 85 l-13 30 -27 -35z"/>
<path d="M2161 1159 c-20 -58 -14 -130 16 -174 27 -42 62 -80 67 -74 15 18 26
54 26 84 0 41 -49 152 -78 179 -19 16 -20 16 -31 -15z"/>
<path d="M67 1093 c-10 -16 10 -101 32 -136 22 -36 84 -74 131 -79 24 -3 25 0
23 41 -3 58 -38 108 -106 149 -54 32 -72 38 -80 25z"/>
<path d="M2440 1087 c-79 -38 -140 -119 -140 -187 0 -30 1 -31 33 -25 90 20
151 89 159 180 3 44 -9 52 -52 32z"/>
<path d="M859 988 c-5 -15 -3 -167 2 -179 13 -25 79 -15 107 17 29 33 30 101
1 138 -17 21 -29 26 -65 26 -24 0 -44 -1 -45 -2z m89 -46 c27 -35 10 -101 -30
-115 -10 -3 -21 -1 -24 5 -8 12 -6 117 2 130 6 10 37 -2 52 -20z"/>
<path d="M1082 893 l3 -97 50 0 c40 0 51 3 53 18 3 13 -2 17 -20 16 -49 -4
-58 0 -58 24 0 21 6 25 33 28 42 4 41 22 -1 26 -29 3 -33 6 -30 30 3 24 7 27
41 25 27 -2 37 1 37 12 0 11 -13 15 -55 15 l-56 0 3 -97z"/>
<path d="M1279 988 c-5 -13 -2 -173 3 -181 4 -6 27 -12 52 -12 37 0 46 3 46
17 0 14 -8 18 -35 18 l-35 0 0 80 c0 64 -3 80 -15 80 -8 0 -15 -1 -16 -2z"/>
<path d="M1462 895 c3 -97 20 -135 26 -57 3 42 4 43 35 40 30 -3 32 -6 31 -40
0 -21 4 -38 8 -38 4 0 11 0 16 0 4 0 8 43 9 96 1 84 -1 95 -15 92 -13 -2 -17
-13 -16 -41 1 -36 0 -37 -32 -37 -33 0 -34 1 -34 40 0 29 -4 40 -15 40 -13 0
-15 -15 -13 -95z"/>
<path d="M1684 895 c0 -69 3 -96 13 -99 15 -6 15 -7 15 94 0 99 0 100 -15 100
-10 0 -13 -23 -13 -95z"/>
<path d="M435 958 c-19 -53 -35 -119 -35 -150 0 -45 27 -118 44 -118 22 0 61
99 61 155 -1 71 -54 157 -70 113z"/>
<path d="M2093 958 c-27 -42 -41 -87 -38 -124 4 -50 43 -144 59 -144 18 0 46
66 46 108 0 58 -34 172 -51 172 -4 0 -11 -6 -16 -12z"/>
<path d="M180 785 c0 -47 47 -123 89 -144 36 -19 114 -31 125 -20 11 10 -16
79 -41 110 -29 34 -114 79 -150 79 -18 0 -23 -6 -23 -25z"/>
<path d="M2285 786 c-59 -27 -88 -57 -110 -110 -24 -56 -17 -65 45 -55 93 15
142 63 157 153 5 33 4 36 -18 36 -13 0 -46 -11 -74 -24z"/>
<path d="M536 772 c-13 -21 -17 -140 -7 -178 11 -40 45 -94 60 -94 10 0 28 56
36 111 7 51 -11 108 -47 146 -23 24 -34 28 -42 15z"/>
<path d="M1982 757 c-51 -54 -60 -114 -32 -218 13 -46 21 -48 49 -13 31 39 44
100 36 167 -10 94 -17 102 -53 64z"/>
<path d="M673 543 c3 -38 10 -80 15 -94 14 -36 58 -86 82 -92 19 -5 20 0 20
66 0 85 -19 131 -69 164 -19 13 -38 23 -44 23 -6 0 -7 -26 -4 -67z"/>
<path d="M1831 583 c-18 -14 -40 -41 -47 -59 -16 -39 -19 -160 -3 -169 5 -4
28 11 49 33 40 43 60 103 60 182 0 48 -12 50 -59 13z"/>
<path d="M325 539 c18 -87 83 -139 174 -139 47 0 51 2 51 24 0 62 -87 132
-180 143 l-52 6 7 -34z"/>
<path d="M2150 561 c-52 -16 -90 -42 -115 -78 -29 -44 -33 -80 -7 -85 31 -7
116 11 141 30 26 19 56 70 66 115 7 25 5 27 -26 26 -19 0 -45 -4 -59 -8z"/>
<path d="M840 472 c0 -40 43 -137 76 -169 20 -21 42 -33 59 -33 26 0 26 1 19
48 -15 102 -53 154 -123 168 -27 6 -31 4 -31 -14z"/>
<path d="M1644 471 c-37 -23 -71 -88 -80 -154 -7 -46 -6 -47 21 -47 38 0 87
53 113 123 29 75 28 97 0 97 -13 0 -37 -9 -54 -19z"/>
<path d="M1025 390 c-6 -9 34 -92 57 -120 42 -50 116 -78 133 -50 10 16 -50
137 -77 153 -28 18 -105 30 -113 17z"/>
<path d="M1437 381 c-38 -19 -108 -144 -90 -162 18 -18 81 1 114 35 35 35 83
122 74 136 -8 14 -63 9 -98 -9z"/>
<path d="M522 349 c-32 -9 -32 -10 -18 -38 8 -15 31 -42 51 -60 30 -26 44 -31
86 -31 27 0 66 7 85 15 l36 15 -19 32 c-10 18 -33 41 -50 51 -38 22 -125 30
-171 16z"/>
<path d="M1881 338 c-28 -14 -52 -36 -63 -58 l-18 -35 37 -12 c21 -6 59 -12
86 -12 43 -1 51 3 92 44 43 42 55 68 37 79 -4 2 -35 7 -67 11 -51 5 -67 3
-104 -17z"/>
<path d="M800 212 c-54 -27 -90 -53 -90 -67 0 -18 42 -43 91 -54 47 -11 88 5
143 55 23 20 27 30 19 43 -26 42 -103 53 -163 23z"/>
<path d="M1616 209 c-33 -26 -33 -36 2 -66 42 -37 83 -56 123 -56 40 0 109 36
109 57 0 14 -55 53 -103 74 -43 19 -101 15 -131 -9z"/>
<path d="M1082 152 c-36 -20 -112 -89 -112 -103 0 -15 58 -39 96 -39 44 0 93
28 126 73 40 53 41 55 9 72 -39 20 -78 19 -119 -3z"/>
<path d="M1364 160 c-34 -13 -35 -24 -10 -61 32 -46 99 -92 135 -91 33 1 101
27 101 39 0 15 -52 65 -98 94 -46 29 -88 35 -128 19z"/>
</g>
</svg>
